<?xml version="1.0" encoding="utf-8"?>
<!-- Generator: Adobe Illustrator 21.0.2, SVG Export Plug-In . SVG Version: 6.00 Build 0)  -->
<svg version="1.1" id="head_Layer_5_body_computer_guitar_3_2_1_glasses_Image"
	 xmlns="http://www.w3.org/2000/svg" xmlns:xlink="http://www.w3.org/1999/xlink" x="0px" y="0px" viewBox="0 0 976 920"
	 enable-background="new 0 0 976 920" xml:space="preserve">
<title>just computer2</title>
<polygon fill="#FCF4DD" points="427.5,547.9 146.1,548.9 156.1,809.9 62.5,879.9 71.1,914.4 547.5,911.4 543.5,864.4 436.5,803.4 
	"/>
<path fill="#030084" d="M174.3,828.9c2-3,2.5-7.5-7.2,0.8c-1.8,1.5-4.8,2.4-7,4.3c-10.2,8.5-23,20.5-27.5,25.2
	c-5.5,5.8-16.2,12.8-12,13.8s10.5-0.8,22.5-14.2S172.3,831.9,174.3,828.9z"/>
<path fill="#030084" d="M190.1,822.9c-5.2-2-6.2,1.8-16.2,14.5c-9.8,12.4-34.9,34.9-26.2,37.2c3.8,1,12-12.5,15.8-14.5
	s23.8-30.2,24.8-30.2S195.3,824.9,190.1,822.9z"/>
<path fill="#030084" d="M202.1,823.4c-4.8-2.2-8,4-9.2,12s-11,32-11,32s-4,14.2,0.5,13.8s7,0.5,8.8-12.2s8.2-14,9.5-21.8
	S206.8,825.6,202.1,823.4z"/>
<path fill="#030084" d="M216.3,822.4c-2.2-3-5.5,7.5-5.8,15s-2,28-1.2,29.5s5.6,9.5,6.5,0.5c0.5-5.2,1.1-19,2-27
	C218.6,833.6,218.6,825.4,216.3,822.4z"/>
<path fill="#030084" d="M233.1,820.9c-1.5,0.8-3.8,0-3.2,8.2s-2.8,16.5-1.5,18s1.8,14.5,1.8,18.2s0.5,15.5,4.2,14.8s2.5-1.8,3.8-2.2
	c-0.5-10-1.2-26.8-1-31.5S238.8,823.1,233.1,820.9z"/>
<path fill="#030084" d="M250.3,820.6c-3.5,2.8,0.8,13.5,0.5,19s2.5,14.2,5,25.5c5.2,3,2.2-26.2,0.5-35.8S253.3,824.9,250.3,820.6z"
	/>
<path fill="#030084" d="M272.8,816.4c-2,0.2,0,14,1.5,21s-2.2,12.8,7.5,25.5c4.2,0.5,2.2-23.8,1-34.8S277.3,819.4,272.8,816.4z"/>
<path fill="#030084" d="M294,820.1c-2.5,3.5-0.5,13.8,0.8,16.5s7.8,30.2,17.2,32.5c1.5-3.2-0.8-14.9-3.5-24
	C303.5,828.6,298.8,827.1,294,820.1z"/>
<path fill="#030084" d="M313,826.1c9.5,21.2,13.2,23.8,19.5,36.2c4.2,0.2,9.8,1,9.8,1c-2.4-3.1-4.5-6.4-6-10
	c-4.3-9.7-9.2-23.5-13.7-26C315.3,823.4,317.3,825.4,313,826.1z"/>
<path fill="#030084" d="M344.3,824.9c0,0-4.2-1.5-5.5,1.8c5.5,13.5,25.2,33.2,26.2,37.2s7,15,7,15l13.5,0.2c0,0-11.5-11.5-13-15.2
	S344.3,824.9,344.3,824.9z"/>
<path fill="#030084" d="M365.3,824.9c-5-0.5-7.2-1.5-8.2,1.8c10,12.5,40.5,48.2,45,51s12.8,1.2,12.8,1.2s-6.4-5.5-17.3-17.1
	C385.7,849.3,369.3,830.5,365.3,824.9z"/>
<path fill="#030084" d="M393.3,823.1c0-0.5-6.2-1.2-8,1.8c10.2,12,34.2,41,36.8,42s14.5,0.8,11.8-1.2S393.3,823.6,393.3,823.1z"/>
<path fill="#030084" d="M414,823.9c-3-1.8-7.5-0.5-7.5,1c22.5,19.5,19.8,19.5,32,28.8s24.2,21.7,36.8,27.5c6,2.8,6.8-2,5.8-3.2
	c-0.5-0.6-5-3.8-18.1-14.7c-2.7-2.3-11.8-10.9-14.6-13.2C434.4,838.4,419.9,827,414,823.9z"/>
<path fill="#030084" d="M369.3,873.1c-10-0.5-17-2.5-78.8,0.2c-22.7,1-44,2-60.5,3.7c-22.2-0.7-79.7,2.1-93,2.3
	c-21,0.2-18,2.5-18,2.5s8.2,3,23.8,3.5s72-3,88.2-3.8c0,2,5.8,2.2,7.2-0.2c5.5,2.2,128.2-1,131.8-0.5s91.5,1.8,95.5,1s5.9-6.2-0.5-6
	c-38,1-36.5-1.2-52-2.2C393.9,872.4,373.7,873.4,369.3,873.1z"/>
<path fill="#030084" d="M374.3,860.1c-39.8-1.8-78.2-0.2-108.8,0.2s-114.2,4.8-122,4.8s-28.2-1.5-28.2-1.5s4.5,5.8,24.2,6.5
	s61,0,79.2-1s92-2.2,121.8-2.8s60.5-0.2,72,1.2s33-0.5,50-1s21.2-3.2,20.2-4.2s-36.8-1.8-46.8-0.8S414,861.9,374.3,860.1z"/>
<path fill="#030084" d="M450.8,838.4c1.5-2.2-23.8,1.5-62.5,2.5s-63,0.8-109,1.2c-11.2,0.1-36,0.6-46,0.8c-45.5,0.7-79.2,3.4-88,4
	c-10.8,0.8-7.2,1.2-7.5,2c1.3,0.9,2.7,1.6,4.2,2c3.2-0.2,6.3-0.2,9.5,0c6,0.2,66-0.2,117-0.8s98.8-3.5,130.8-4.2
	S449.3,840.6,450.8,838.4z"/>
<path fill="#030084" d="M385.3,819.9c-58.8,1.2-105.8,3.8-149.8,4.5c-25.5,0.4-64.3,3.1-71.2,3.8c-2.5,0.2-7.8,4-1.8,4.5
	s81.5,0.8,99.2-0.2s165.2-5.5,176.5-7.8C434.3,821.1,406.8,819.4,385.3,819.9z"/>
<path fill="#030084" d="M394.3,766.4c-3.8,0-39.8,0.2-45,0.2H335c0,0-1.2,3-2.5,3.8c2.8,0.2,4.8,2,12.2,3s32-1,39.2-0.5
	c4.4,0.3,8.8,0.2,13.2-0.2C398,772.6,398,766.4,394.3,766.4z"/>
<path fill="#030084" d="M321.5,766.4c-1.8-0.7-3.8-0.2-5,1.2c-1.2,1.5-0.2,3.8,0,4.2c5.2,2.6,5.8,1,7.2,0S323,767.1,321.5,766.4z"/>
<path fill="#030084" d="M388.3,582.1c-6-0.2-12.2,0.8-51.2,1.2c-29,0.4-92.1-0.1-124.5-0.2c-11.1,0-18.4,1.3-19.8,0.9
	c-5.2-1.5-3.4-1.9-8.2,1c-3.8,2.2-1.8,4.5-4.2,5.8c-0.2,16.8,2.2,68,2.2,86.5s2,58.5,2,64.5c2.4,2.6,2.6,4.6,5.5,5.8
	s8.8,1.4,9.2,2.9s6,0.1,10.1,0.8s-6.1,0.6,15.4,0.6s130.2,1.5,144.2,1c7.3-0.3,13.1-1.5,17.7-1.6c4.2-0.1,7.5,1.1,8.3-0.1
	c1.5-2.5,1.8,1.2,1.8-14.8s0.3-125.5,0-129.5c-0.8-11.2-3.1-10-3.6-17.2c-0.1-1.6,0.5-4.4-0.6-5.6
	C391.1,582.4,388.7,582.9,388.3,582.1z"/>
<path fill="#030084" d="M429,552.9c-6,2-6.7,4.6-7.3,14c-0.4,7.1-1.4,18.3-1.5,35.5c-0.2,29.2-1,89-0.2,108.5
	c0.7,18.9,4,49.8,6.2,66c1.6,12.5,3.7,20.7,4.4,24.9c1.2,7.1,8.2,4.9,7.6,1.3s3.3-2.6,4.1-3.4c0.1-1.5-5.4-65.7-5.9-79.2
	c-0.8-22.2,0.3-52.3,0.5-84c0.1-26.9-1.3-53.9-1.7-70C435,557.9,432,551.9,429,552.9z"/>
<path fill="#030084" d="M430.8,541.1c-8.4-4.6-42.5-0.5-69.8,1s-48.5-0.2-72.5,0c-60.8,0.6-132,2.5-144,2.1
	c-3.1-0.1-3.4,2.4-3.5,5.1c-2.5,29.7,2.1,53.5,4.8,93c1.5,22.3,2.2,52.5,1.7,86c-0.2,14.7,0.8,26.4,1.1,35.3
	c0.9,31.9,3.1,31.8,4.2,39.9c1.4,10.4,2.2,8.4,5.2,5.4c0-9.5,3.1-76,2.5-113.5c-2-115.5-9-108-9-142.5c11,2.8,52.2,2.5,78.5,3.2
	s70.8-1.5,87.2-2.2s40.8,1.8,60,1.2s52.5-2.5,53.2-2.5S433.5,542.6,430.8,541.1z"/>
<path fill="#030084" d="M406.3,798.9c-35.8-0.7-63.5-1.2-137.2,0.8s-98.3,4.5-107,4.8s-7.6,1.7-10.1,3.2s-2.2,3.5-1.9,4.1
	c1.3,0.2,2.2,1.2,4.5,2.8c-2.4,0.1-4.8-1.4-7.2-1.4s-35,24-53,36.8s-21,13-32,21.5c-4.6,0.4-6.6-2-7-0.2c-0.2,1.3-0.9,2.5-2,3.2
	c-0.2,3.5-2.6,3.5-2.4,4.4c0.8,8.1,0.9,7.6,1.9,8.1s1.2,7.5,1.8,13s4.2,3.8,5,5c5.1,8.5,3.2,10,5.5,14c169-10,207.2-1,314.5-1.5
	c96.5-0.5,141.5-2.8,146.9-3.1s4-1.8,5.5-2.4s-2.4-3.2-4.1-4.8c-3.4-2.9-66-2.5-87-2.8c-56.3-0.7-157.2-3.5-207.8-2.9
	c-50.9,0.6-85.9,3.6-93.7,4.2c-48.2,3.5-65,5-65,5c0.7-1.4,1-3,0.8-4.5c-1-4.5-5.2-19.8-5-26.5c33.2-19.2,76.2-53,81.8-58
	c3.6-3.3,5.5-5,4.2-7c39.5,3.5,206.7-6.4,225.5-7.2c27.8-1.2,32.8-4,46.5-5.5c2.2,6.6,21.7,17.6,41.2,28s39.4,20.4,48,24.7
	c14.8,7.5,22.2,14.2,22.2,14.2s-3.8,1.5-3.8,4s1.2,19.1,3.5,34.2c1.8,11.5,6,4.5,12.8,12c1.3-0.6,1.8-2.2,2.7-3.6
	c0.7-0.9,1.5-1.8,2.4-2.5c0,0,0.4-5.9,0.6-11.9s-3.5-19.1-3.6-23.2s1-3.2,0.9-3.6c1.2-6.4-2.4-10.2-6.8-13.6
	c-24-18.5-34.1-20.7-79.3-44.5c-7.9-4.1-17.7-8.2-27.7-14c-3.1,0.1-6.3-0.3-9.2-1.4C425.6,799.9,412.6,799,406.3,798.9z"/>
</svg>
