<?xml version="1.0" encoding="utf-8"?>
<!-- Generator: Adobe Illustrator 21.0.2, SVG Export Plug-In . SVG Version: 6.00 Build 0)  -->
<svg version="1.1" id="Layer_1" xmlns="http://www.w3.org/2000/svg" xmlns:xlink="http://www.w3.org/1999/xlink" x="0px" y="0px"
	 viewBox="0 0 110 163.7" enable-background="new 0 0 110 163.7" xml:space="preserve">
<g>
	<path fill="#F93EE4" d="M30.6,99.3c1.2-3,2.4-6.1,3.3-9.2c-1.6,2.2-2.9,4.7-4.4,7.1c-0.3,0.5-1.1,0.2-0.9-0.4
		c0.6-1.6,1.3-3.1,2.1-4.6c0.7-1.3,1.7-2.8,1.9-4.3c0.1-0.6,1.1-0.6,1,0c0,0.5-0.1,0.9-0.3,1.3c0.4-0.6,0.9-1.2,1.4-1.7
		c0.4-0.4,1,0,0.8,0.5c-1,3.9-2.6,7.7-4,11.5C31.3,100.2,30.4,99.9,30.6,99.3z M37.6,90.2c-2.7,5.2-5.9,10.3-7.1,16.1
		c-0.1,0.6,0.8,0.9,1,0.3c1.2-5.7,4.3-10.7,6.9-15.9C38.8,90.1,37.9,89.6,37.6,90.2z M40.1,90.6c0.2-0.6-0.7-0.9-1-0.3
		c-2.5,5.9-4.9,11.9-7,18c-0.2,0.5,0.5,0.8,0.8,0.5c0.7-0.7,1-1.4,1.1-2.4c0-0.2,0-0.3-0.1-0.4C35.8,100.8,37.9,95.7,40.1,90.6z
		 M48.2,99.1c-1.9,1.9-3.4,4-4.8,6.3c1.7-4.2,3.7-8.3,4.2-12.9c0-0.4-0.6-0.7-0.9-0.4c-3.2,4-5.7,8.5-8.6,12.7
		c2.1-4.7,4.6-9.3,5.9-14.2c0.2-0.6-0.8-0.9-1-0.3c-1.7,6.3-5.2,11.9-7.5,18c-0.2,0.5,0.5,0.9,0.8,0.5c3.6-4.6,6.4-9.8,9.8-14.5
		c-1.1,5.5-4.2,10.5-5.7,16c-0.1,0.5,0.7,0.9,0.9,0.4c1.6-3.2,3.5-6.3,5.8-9.1c-1,2.8-2.3,7.1-0.2,6.8c0.6-0.1,0.6-1.1,0-1
		c-0.2,0,1.8-7.1,2-7.9C49.2,99.1,48.6,98.7,48.2,99.1z M87.9,107.9L87.9,107.9c-0.2-0.1-0.4-0.1-0.5,0c-0.3,0.2-0.5,0.4-0.8,0.7
		c0.6-2,1-4,1.1-6.1c0-0.5-0.7-0.6-0.9-0.3c-1.4,1.8-2.6,3.8-4,5.6c1.7-4.3,3.5-8.6,4.4-13.3c0.1-0.5-0.6-0.9-0.9-0.4
		c-1.9,3.2-3.9,6.4-6,9.5c2.4-5,4.7-10,6.8-15c0.2-0.6-0.6-1.1-0.9-0.5c-3.5,6.5-6.7,13.4-11.6,18.9c1.5-5.1,4.6-9.6,6.5-14.6
		c0.2-0.5-0.6-0.9-0.9-0.4c-2.3,4.2-4.5,8.5-7,12.6c2.3-5.3,5.5-10.3,7.9-15.6c0.2-0.5-0.4-1.1-0.8-0.6c-2.5,3-4.6,6.1-6.8,9.3
		c0.9-3.3,3.1-6.3,3.7-9.8c0.1-0.5-0.5-0.9-0.8-0.5c-1.5,1.5-2.9,3.2-4.1,4.9c0.4-1.7,0.8-3.3,1.4-4.9c0.2-0.6-0.7-0.9-1-0.3
		c-0.9,2.4-1.5,4.9-2,7.5c-0.1,0.5,0.6,0.9,0.9,0.4c1.2-2,2.6-3.8,4.1-5.5c-1.1,3.5-3.4,6.5-3.6,10.3c0,0.5,0.7,0.6,0.9,0.3
		c1.7-2.4,3.3-4.8,5-7.1c-2.7,5.2-5.7,10.1-7.4,15.8c-0.2,0.6,0.6,0.8,0.9,0.4c0.9-1.3,1.8-2.7,2.6-4.1c-0.4,1.2-0.8,2.4-1.1,3.7
		c-0.1,0.5,0.5,0.9,0.8,0.5c2.7-2.7,4.8-5.8,6.8-9.1c-1.5,3.2-3,6.3-4.6,9.5c-0.3,0.6,0.5,1,0.9,0.5c2.9-4.2,5.7-8.4,8.3-12.7
		c-1.2,4.4-3.1,8.6-4.7,12.9c-0.2,0.5,0.5,0.8,0.8,0.5c1.9-2,3.4-4.4,5-6.6c-0.3,2.5-1.1,4.8-1.8,7.2c-0.2,0.6,0.8,0.9,1,0.3
		c0.2-0.5,0.7-1.1,1-1.5c0.2-0.2,0.4-0.5,0.6-0.7l0.3-0.3c0.1-0.1,0.2-0.1,0.2-0.2c0.2,0,0.3-0.1,0.4-0.3c0,0,0-0.1,0.1-0.1
		C88.2,108.2,88.1,108,87.9,107.9z"/>
	<path fill="#030084" d="M101.1,161.3c0.1-0.4-0.4-0.1-1-0.1c-1,0.1-1.9,0.1-2.9,0.1c-2.8,0-5.6,0-8.3-0.1s-5.5-0.1-8.2-0.2
		c0.9-12.2-2.4-24.3-2.5-36.5c0.4,0,0.7-0.7,0.2-0.9c-9.5-5.5-20.1,1.3-30.1-1c-0.6-0.1-0.9,0.8-0.3,1c0.1,0,0.1,0,0.2,0
		c-0.3,0-0.6,0.3-0.5,0.6c2.1,12,1.6,24.2,2.9,36.2c-1.2,0-2.4,0-3.6,0c-5.3-0.1-10.7-0.3-16,0.5c-4.7,0.7-9.6,2.2-14.4,1.7
		c-0.3-10.6-0.7-21.2-0.9-31.7c-0.2-7.9,0-15.7,0.2-23.5c0.4-10.6,0.8-21.4-1.4-31.9c0-0.1,0-0.1-0.1-0.1c4.9,1.2,10.3,0.8,15.3,0.5
		c6.2-0.3,12.5-1.1,18.8-0.8c16.6,0.8,33.4-2.5,49.9,0.5c0.6,0.1,0.9-0.9,0.3-1c-16-2.9-32.3,0.2-48.4-0.4
		C44.2,74,38.1,74.4,32,74.8c-5.9,0.4-12.5,1.1-18.3-0.6c-0.6-0.2-0.9,0.8-0.3,1c0.1,0,0.3,0.1,0.4,0.1c-0.2,0.1-0.3,0.3-0.3,0.5
		c2.2,10.7,1.7,21.7,1.3,32.5c-0.3,7.6-0.4,15.1-0.2,22.6c0.2,10.6,0.5,21.2,0.9,31.7c0,0.3,0.3,0.5,0.5,0.5c0,0.2,0.2,0.5,0.5,0.5
		c4.4,0.4,8.9-0.8,13.2-1.5c5.9-1,12.1-0.7,18-0.6c1,0,1.9,0,2.9,0c0.2,0.2,0.5,0.2,0.7,0c6.4,0.1,12.8,0.2,19.2,0.4
		c7,0.2,14.1,0.5,21.1,0.6c2.5,0,5,0.1,7.6,0c0.6,0,2.4,0.2,2.7-0.7C102.3,161,101.3,160.7,101.1,161.3z M68.9,160.6
		c-5.8-0.2-11.6-0.2-17.4-0.3c-1.3-12.1-0.8-24.4-3-36.5c0-0.1-0.1-0.2-0.2-0.3c9.5,2,19.7-4.1,28.7,0.5c0.1,12.3,3.5,24.6,2.5,37
		C76,160.8,72.5,160.7,68.9,160.6z"/>
	<path fill="#030084" d="M104.2,144c-0.5-7.1-1.3-14.1-1.9-21.1c-1.2-15.7,0.6-31.6-2.7-47.1c-0.1-0.6-1.1-0.4-1,0.3
		c3.3,15.2,1.6,30.8,2.7,46.1c0.5,6.8,1.3,13.5,1.8,20.3c0.5,6.2,0.9,12.7-0.5,18.8c-0.1,0.6,0.8,0.9,1,0.3
		C104.9,155.8,104.6,149.8,104.2,144z"/>
	<path fill="#030084" d="M52.2,113L52.2,113c0.1-8.5-1.6-17-1.6-25.5c0-0.3-0.2-0.5-0.5-0.5c-4.5,0-8.9-0.7-13.4-0.9
		c-3-0.1-7.5-0.6-10,1.6c-0.1,0.1-0.1,0.2-0.2,0.3v-0.1c-0.1-0.6-1.1-0.4-1,0.3c1.1,8.1,2.9,16.2,2.5,24.4c0,0.6,1,0.6,1,0
		c0.2-4.5-0.2-9-0.8-13.4c3.2,1,6.7,1.2,10.1,1.1c0.2,3.9,0.5,7.9,1.1,11.7c-2.9,0.1-5.8,0.5-8.5,1.1c-0.6,0.1-0.4,1.1,0.3,1
		c2.8-0.7,5.6-1,8.5-1.1c0.2,0.2,0.4,0.1,0.6,0c3.6-0.1,7.2,0.3,10.7,1c0,0.2,0,0.5,0,0.7c0,0.6,1,0.6,1,0c0-0.2,0-0.3,0-0.5
		C52.6,113.9,52.8,113.1,52.2,113z M38.6,87.1c3.7,0.2,7.3,0.7,11,0.8c0.1,3.5,0.4,7,0.7,10.6c-0.1,0-0.1,0-0.2,0
		c-3.5,0-7.1,0.5-10.8,0.6c-0.2-4-0.5-8-1.2-12C38.3,87.1,38.4,87.1,38.6,87.1z M28.2,98h-0.1c-0.5-3.3-1.1-6.6-1.5-9.9
		c0.1,0.3,0.5,0.5,0.8,0.2c2.2-1.9,6.5-1.6,9.7-1.3c0,0,0,0,0,0.1c0.7,4,1,8,1.2,12C34.8,99.2,31.4,99,28.2,98z M40.5,111.8
		c-0.7-3.9-0.9-7.8-1.1-11.7c3.6-0.2,7.3-0.6,10.7-0.6c0.1,0,0.2,0,0.3-0.1c0.4,4.5,0.8,8.9,0.8,13.4
		C47.6,112.1,44.1,111.7,40.5,111.8z"/>
	<path fill="#030084" d="M91.7,113L91.7,113c0.1-8.5-1.6-17-1.6-25.5c0-0.3-0.2-0.5-0.5-0.5c-4.5,0-8.9-0.7-13.4-0.9
		c-3-0.1-7.5-0.6-10,1.6c-0.1,0.1-0.1,0.2-0.2,0.3v-0.1c-0.1-0.6-1.1-0.4-1,0.3c1.1,8.1,2.9,16.2,2.5,24.4c0,0.6,1,0.6,1,0
		c0.2-4.5-0.2-9-0.8-13.4c3.2,1,6.7,1.2,10.1,1.1c0.2,3.9,0.5,7.9,1.1,11.7c-2.9,0.1-5.8,0.5-8.5,1.1c-0.6,0.1-0.4,1.1,0.3,1
		c2.8-0.7,5.6-1,8.5-1.1c0.2,0.2,0.4,0.1,0.6,0c3.6-0.1,7.2,0.3,10.7,1c0,0.2,0,0.5,0,0.7c0,0.6,1,0.6,1,0c0-0.2,0-0.3,0-0.5
		C92.1,113.9,92.2,113.1,91.7,113z M78,87.1c3.7,0.2,7.3,0.7,11,0.8c0.1,3.5,0.4,7,0.7,10.6c-0.1,0-0.1,0-0.2,0
		c-3.5,0-7.1,0.5-10.8,0.6c-0.2-4-0.5-8-1.2-12C77.7,87.1,77.9,87.1,78,87.1z M67.7,98L67.7,98c-0.6-3.3-1.2-6.6-1.6-9.9
		c0.1,0.3,0.5,0.5,0.8,0.2c2.2-1.9,6.5-1.6,9.7-1.3c0,0,0,0,0,0.1c0.7,4,1,8,1.2,12C74.3,99.2,70.9,99,67.7,98z M79.9,111.8
		c-0.7-3.9-0.9-7.8-1.1-11.7c3.6-0.2,7.3-0.6,10.7-0.6c0.1,0,0.2,0,0.3-0.1c0.4,4.5,0.8,8.9,0.8,13.4
		C87.1,112.1,83.5,111.7,79.9,111.8z"/>
	<path fill="#0FB4BF" d="M109.9,74.6C99.4,63.1,91.3,49.7,81.6,37.7C71.3,24.9,59.5,13.3,49.5,0.2C49.3,0,49.1-0.1,48.8,0
		C43.7,3.2,40,8.3,36.6,13.2c-4.1,5.9-7.5,12.2-11.2,18.4c-4,6.7-8.5,13.1-12.5,19.8C8.3,59.1,4.1,67.1,0.1,75.3
		c-0.2,0.3,0,0.8,0.4,0.8c4.5,0,9.2,0.5,13.6-0.5c0.6-0.1,0.4-1.1-0.3-1c-4.1,0.9-8.4,0.6-12.6,0.5C4.9,67.5,8.8,60,13.1,52.7
		c3.9-6.6,8.4-12.9,12.4-19.5c3.5-5.9,6.9-11.9,10.6-17.7c3.4-5.3,7.4-10.8,12.7-14.4C58.6,13.8,70,25.3,80.2,37.6
		c9.9,12,17.9,25.3,28.2,36.9c-5,0.8-10,0.4-15,0.4c-0.6,0-0.6,1,0,1c5.4,0,10.8,0.5,16.1-0.5C110.1,75.4,110.2,74.8,109.9,74.6z"/>
	<path fill="#0FB4BF" d="M102.8,68.5c-1.3,0.9-2.7,1.7-3.9,2.6c0.2-1.2,0.4-2.4,0.7-3.5c0.1-0.5-0.5-0.8-0.8-0.5
		c-0.9,0.8-1.8,1.6-2.8,2.4c0.4-1.3,0.7-2.7,1.1-4c0.2-0.5-0.5-0.8-0.8-0.5c-1.7,1.4-3.4,2.9-5,4.3c0.9-2.4,2-4.8,2.9-7.3
		c0.2-0.5-0.4-0.7-0.7-0.5c0.1-0.3,0.2-0.6,0.2-1c0.1-0.5-0.5-0.8-0.8-0.5c-2.5,2.2-4.2,5-6.5,7.5c1-2.8,2.3-5.5,2.8-8.5
		c0.1-0.5-0.6-0.9-0.9-0.4c-1.9,3-3.8,6-5.9,8.8c2.1-5,4.9-9.7,6.3-14.9c0.1-0.5-0.5-0.9-0.8-0.5c-4,4.6-6,10.6-9.9,15.3
		c2.5-6.2,7-11.6,7.7-18.4c0-0.4-0.5-0.6-0.8-0.4c-5.9,4.3-7.5,11.4-11.3,17.2c1.8-6.7,6.2-12.5,8.5-19.1c0.2-0.5-0.5-0.9-0.8-0.5
		c-0.6,0.8-1.3,1.6-1.9,2.4c1.1-2.2,2.2-4.5,3.1-6.8c0.2-0.4-0.2-0.9-0.7-0.7c-9.2,5.1-11.4,16.3-17.7,24c2.4-8.1,7.5-15,10.4-22.9
		c0.2-0.6-0.6-0.8-0.9-0.4c-3.8,5.8-7.2,11.8-10.7,17.8c3.5-6.9,7.1-13.8,10.1-21c0.2-0.5-0.5-0.8-0.8-0.5
		c-6.5,7-10.7,15.7-15.8,23.8c4.8-9.5,9.1-19.3,15.1-28.2c0.3-0.5-0.4-1-0.8-0.6c-5.8,6.1-10.8,12.9-15.4,19.9
		c4-7.1,7.9-14.3,11.2-21.8c0.3-0.6-0.5-1-0.9-0.5c-8.5,11.2-17.7,22-25.3,33.8C45.8,51.6,52.9,39.6,60,27.6c0.3-0.5-0.4-1-0.8-0.6
		c-2.7,2.8-5,6.2-7.1,9.4c-2.7,4.1-4.9,8.5-7.1,12.8c-3.6,7-7.3,14.2-12.6,20.1C42.2,54.7,50.7,39,56.6,22.4
		c0.2-0.5-0.5-0.8-0.8-0.5c-13.3,14.4-23.2,31.5-35,47c1.3-4.2,3.6-8.1,6-11.8c2.8-4.4,5.4-8.8,8.1-13.3c5.9-10,12-20,19.2-29.2
		c0.4-0.5-0.3-1.2-0.7-0.7C39.9,29.5,29.7,47.5,18,64.4c5.7-14.8,15.4-27.6,22.7-41.6c3.3-5.2,6.1-10.6,7.5-16.5
		c0.1-0.5-0.4-0.7-0.8-0.6c-0.2-0.1-0.5-0.1-0.7,0.2c-14,20.4-32,40-38.1,64.6c-0.1,0.4,0.5,0.9,0.8,0.5
		c8.5-10.5,13.7-23.1,21.4-34.2c1.1-1.5,2.2-3.1,3.3-4.6c-6.8,11.4-14.2,22.6-18.5,35.3c-0.2,0.6,0.6,0.8,0.9,0.4
		c9.1-12.7,17.1-26.3,26.2-39c-2.8,4.4-5.6,9-8.3,13.5c-2.8,4.7-5.6,9.4-8.5,14c-2.9,4.5-5.6,9.2-6.8,14.5c-0.1,0.4,0.5,0.9,0.8,0.5
		c12-15.4,21.8-32.5,34.8-47.1c-6.4,17.2-15.6,33.5-26.1,48.5c-0.3,0.5,0.4,1,0.8,0.6c6.9-6,11.3-14,15.4-22
		c2.1-4.1,4.2-8.3,6.6-12.3c1.2-2.1,2.5-4.1,4-6c0.1-0.1,0.1-0.2,0.2-0.2C48.7,44.7,42,56.7,37.1,69.4c-0.2,0.5,0.6,0.9,0.9,0.4
		c7.4-12.7,16.9-24,25.8-35.6c-6,12.9-13.8,24.9-20.2,37.5c-0.3,0.6,0.5,1.1,0.9,0.5c6.9-11.9,14-24,23-34.5
		c-5.8,9.8-10.2,20.5-15.8,30.5c-0.3,0.5,0.4,1.1,0.8,0.6l0.1-0.1l0,0l0,0c6.8-8.8,11.3-19.3,18.3-28c-4.3,9.8-9.7,19.2-14.2,29
		c-0.3,0.6,0.5,1.1,0.9,0.5c4.7-7.5,8.9-15.4,13.5-23c-3.1,6.3-6.8,12.2-8.4,19.1c-0.1,0.5,0.5,0.9,0.8,0.5c7-7.2,9-18.8,17.5-24.6
		c-3.9,8.8-8.9,17.1-12.8,26c-0.3,0.6,0.6,1.1,0.9,0.5c3.5-6.5,6.4-13.4,10.7-19.4c-2.7,6-6.6,11.5-7.6,18.1
		c-0.1,0.4,0.5,0.9,0.8,0.5c4.5-5.7,5.9-13.4,11.5-18.2c-1.2,6.9-6.3,12.5-8.3,19.2c-0.2,0.5,0.5,0.8,0.8,0.5
		c4.4-4.1,6.4-10,9.8-14.8c-1.9,5.2-4.8,10.1-6.7,15.3c-0.2,0.5,0.5,0.9,0.8,0.5c2.4-2.8,4.4-5.8,6.4-8.9c-0.8,2.5-1.9,4.9-2.7,7.4
		c-0.2,0.5,0.5,0.8,0.8,0.5c2.6-2.3,4.3-5.2,6.6-7.7c-0.9,2.5-2.2,4.7-3.4,7.1c-0.3,0.6,0.5,1.1,0.9,0.5c0.5-0.8,1-1.6,1.4-2.4
		c-0.5,1.2-0.9,2.3-1.3,3.5c-0.2,0.5,0.5,0.8,0.8,0.5c1.8-1.4,3.5-3,5.2-4.5c-0.4,1.5-0.8,3-1.5,4.4c-0.3,0.5,0.4,1,0.8,0.6
		c1.1-1,2.2-2,3.3-2.9c-0.2,1.2-0.3,2.3-0.7,3.5c-0.1,0.5,0.5,0.8,0.8,0.5c1.2-1.1,2.6-2,4-2.9c-0.3,1.5-1.1,2.8-1.8,4.2
		c-0.3,0.6,0.6,1.1,0.9,0.5c1-1.9,1.9-3.6,2.1-5.8C103.6,68.6,103.1,68.3,102.8,68.5z M29.9,36.6c-7.2,10.3-12.2,22.1-19.7,32.1
		c6.2-22.3,22.2-40.5,35.3-59.1c-1.6,4.4-3.6,8.7-5.7,12.8C36.6,27.4,33.1,32.1,29.9,36.6z"/>
	<path fill="#030084" d="M93.2,10.1C88,6.6,81.3,8.4,75.5,8.4c-0.3,0-0.5,0.2-0.5,0.5c0,2.6,0,5.3-0.5,7.9c0,0.3,0.1,0.5,0.3,0.6
		c2.1,0.6,3.9,1.7,6.1,2c-0.6,5.1-1,10.4-1.9,15.4c-0.1,0.6,0.8,0.9,1,0.3c1-5.3,1.4-10.8,2-16.1c0-0.3-0.3-0.5-0.5-0.5
		c-2.2-0.1-4-1.2-6-1.8c0.4-2.4,0.4-4.8,0.4-7.2c5.4-0.1,10.7-1.2,15.8,1.1c3.4,1.6,2.1,5.3,2.2,8.4c-2,0.1-3.9,0.2-5.7-0.9
		c-0.3-0.2-0.7,0-0.7,0.3c-1.5,8.2-3,16.4-4,24.6c-0.1,0.6,0.9,0.6,1,0c1-8,2.4-15.9,3.9-23.7c1.9,1,3.9,0.8,6.1,0.7
		c0.3,0,0.5-0.2,0.5-0.5C94.9,16.2,96.4,12.2,93.2,10.1z"/>
</g>
</svg>
